<?xml version="1.0" encoding="UTF-8" standalone="no"?>
<svg
   width="16"
   height="16"
   viewBox="0 0 16 16"
   fill="none"
   version="1.1"
   id="svg184"
   sodipodi:docname="lock-icon.svg"
   inkscape:version="1.2 (dc2aeda, 2022-05-15)"
   xmlns:inkscape="http://www.inkscape.org/namespaces/inkscape"
   xmlns:sodipodi="http://sodipodi.sourceforge.net/DTD/sodipodi-0.dtd"
   xmlns="http://www.w3.org/2000/svg"
   xmlns:svg="http://www.w3.org/2000/svg">
  <defs
     id="defs188" />
  <sodipodi:namedview
     id="namedview186"
     pagecolor="#ffffff"
     bordercolor="#cccccc"
     borderopacity="1"
     inkscape:showpageshadow="0"
     inkscape:pageopacity="1"
     inkscape:pagecheckerboard="0"
     inkscape:deskcolor="#d1d1d1"
     showgrid="true"
     showguides="false"
     inkscape:zoom="41.72"
     inkscape:cx="11.685043"
     inkscape:cy="8.9645254"
     inkscape:window-width="1149"
     inkscape:window-height="1004"
     inkscape:window-x="6458"
     inkscape:window-y="368"
     inkscape:window-maximized="0"
     inkscape:current-layer="svg184">
    <inkscape:grid
       type="xygrid"
       id="grid416" />
  </sodipodi:namedview>
  <path
     d="m 13.6,5 c 0,-2.2091401 -2.507258,-4 -5.6000001,-4 -3.0927958,0 -5.6,1.7908599 -5.6,4 V 9.4999992 L 2,9.4999999 C 1,9.5000016 1,10.500001 1,10.500001 V 14 c 0,1 1,1 1,1 h 12 c 1,0 1,-0.999999 1,-0.999999 v -3.5 c 0,0 0,-1.0000011 -1,-1.0000011 -0.257128,0 1,0 -0.4,-7e-7 z M 4.4999998,5 c 0,-1.3807099 1.5670061,-2.5 3.5000001,-2.5 1.9329941,0 3.5000021,1.1192901 3.5000021,2.5 V 9.4999992 H 4.4999998 Z"
     fill="currentColor"
     id="path182"
     style="stroke-width:1.18322"
     sodipodi:nodetypes="ssscscscsscscssssccs" />
</svg>
